<?xml version="1.0" encoding="UTF-8" standalone="no"?>
<!-- Created with Inkscape (http://www.inkscape.org/) -->

<svg
   width="8.3416147mm"
   height="7.2728047mm"
   viewBox="0 0 8.3416148 7.2728047"
   version="1.1"
   id="svg1441"
   sodipodi:docname="flites-logo-circle-white.svg"
   inkscape:version="1.1.2 (0a00cf5339, 2022-02-04)"
   xmlns:inkscape="http://www.inkscape.org/namespaces/inkscape"
   xmlns:sodipodi="http://sodipodi.sourceforge.net/DTD/sodipodi-0.dtd"
   xmlns="http://www.w3.org/2000/svg"
   xmlns:svg="http://www.w3.org/2000/svg">
  <sodipodi:namedview
     id="namedview932"
     pagecolor="#ffffff"
     bordercolor="#666666"
     borderopacity="1.0"
     inkscape:pageshadow="2"
     inkscape:pageopacity="0.0"
     inkscape:pagecheckerboard="0"
     inkscape:document-units="mm"
     showgrid="false"
     fit-margin-top="0"
     fit-margin-left="0"
     fit-margin-right="0"
     fit-margin-bottom="0"
     inkscape:zoom="16.767906"
     inkscape:cx="14.909435"
     inkscape:cy="10.794431"
     inkscape:window-width="5120"
     inkscape:window-height="1371"
     inkscape:window-x="0"
     inkscape:window-y="32"
     inkscape:window-maximized="1"
     inkscape:current-layer="g1157" />
  <defs
     id="defs1438" />
  <g
     id="layer1"
     transform="translate(-109.94649,-88.718311)">
    <g
       id="g1157"
       transform="translate(-57.774531,-1.9743429)">
      <path
         id="path97708-03-0"
         style="fill:#ffffff;stroke:none;stroke-width:2.36965;stroke-miterlimit:4;stroke-dasharray:none;stroke-opacity:0.998041"
         d="m 653.07031,342.77539 a 12.363857,12.512901 0 0 0 -12.36523,12.51367 12.363857,12.512901 0 0 0 12.36523,12.51367 12.363857,12.512901 0 0 0 12.36328,-12.51367 12.363857,12.512901 0 0 0 -12.36328,-12.51367 z m 0.10352,2.21484 a 10.17004,10.330969 0 0 1 10.16992,10.33204 10.17004,10.330969 0 0 1 -10.16992,10.33007 10.17004,10.330969 0 0 1 -10.16992,-10.33007 10.17004,10.330969 0 0 1 10.16992,-10.33204 z"
         transform="scale(0.26458333)" />
      <path
         id="path97708-03-0-5"
         style="opacity:0.371322;fill:#ffffff;stroke:none;stroke-width:0.62697;stroke-miterlimit:4;stroke-dasharray:none;stroke-opacity:0.998041"
         d="m 171.8807,90.975709 a 3.2712705,3.310705 0 0 0 -3.27164,3.310909 3.2712705,3.310705 0 0 0 3.27164,3.310908 3.2712705,3.310705 0 0 0 3.27111,-3.310908 3.2712705,3.310705 0 0 0 -3.27111,-3.310909 z m 0.0274,0.58601 a 2.690823,2.7334022 0 0 1 2.69079,2.733686 2.690823,2.7334022 0 0 1 -2.69079,2.733164 2.690823,2.7334022 0 0 1 -2.6908,-2.733164 2.690823,2.7334022 0 0 1 2.6908,-2.733686 z" />
      <path
         id="path97708-03-0-5-4"
         style="opacity:0.163747;fill:#ffffff;stroke:none;stroke-width:0.62697;stroke-miterlimit:4;stroke-dasharray:none;stroke-opacity:0.998041"
         d="m 170.99266,91.343642 a 3.2712705,3.310705 0 0 0 -3.27164,3.310909 3.2712705,3.310705 0 0 0 3.27164,3.310908 3.2712705,3.310705 0 0 0 3.27111,-3.310908 3.2712705,3.310705 0 0 0 -3.27111,-3.310909 z m 0.0274,0.58601 a 2.690823,2.7334022 0 0 1 2.69079,2.733686 2.690823,2.7334022 0 0 1 -2.69079,2.733164 2.690823,2.7334022 0 0 1 -2.6908,-2.733164 2.690823,2.7334022 0 0 1 2.6908,-2.733686 z" />
    </g>
  </g>
</svg>
