<svg xmlns="http://www.w3.org/2000/svg" width="500" height="145">
    <path fill="#fff" fill-opacity=".2" d="M237.757 47.996c.635-.369 1.284-.468 1.955-.298l10.948 2.748 3.991-15.35-10.702-2.692c-6.625-1.661-12.363-1.256-17.205 1.215-4.741 2.414-7.902 6.68-9.49 12.787l-2.57 9.904-9.944-2.499-4.048 15.606 9.944 2.5-11.799 45.44 18.879 4.743 11.8-45.44 13.466 3.379 4.048-15.599-13.466-3.387 2.987-11.516c.174-.66.57-1.172 1.206-1.54M267.405 107.057c-.317-.642-.36-1.29-.144-1.925l24.599-70.383-27.366-9.16-5.288 15.132 8.963 2.997-19.18 54.89c-1.96 5.6-1.73 10.557.698 14.859 2.537 4.245 6.831 7.383 12.89 9.407l8.085 2.715 5.202-14.894-6.996-2.34c-.656-.22-1.139-.657-1.463-1.298M287.355 70.065l10.131 3.38-14.928 44.867 18.31 6.114L320.93 64.15l-28.448-9.493-5.127 15.407ZM311.672 29.077l-5.858 18.619 19.717 6.962 5.864-18.619-19.723-6.962ZM358.63 77.926l12.653 4.248 5.461-15.308-12.66-4.242 5.16-14.452-18.783-6.304-5.152 14.451-9.635-3.234-5.454 15.309 9.627 3.227-9.053 25.39c-1.435 4.05-1.972 7.541-1.619 10.469.442 2.963 1.457 5.476 3.055 7.554a19.503 19.503 0 0 0 5.77 5.062c2.326 1.329 4.66 2.385 7 3.164l10.385 3.491 5.454-15.309-10.143-3.398c-.67-.229-1.162-.664-1.494-1.321-.33-.65-.375-1.307-.147-1.95l9.576-26.847ZM485.86 93.648a28.969 28.969 0 0 0-5.938-5.57 92.061 92.061 0 0 0-6.366-4.214c-1.977-1.304-3.562-2.571-4.768-3.802-1.128-1.203-1.465-2.506-1.016-3.911.413-1.325 1.346-2.15 2.776-2.491 1.458-.42 3.232-.283 5.307.42 2.321.79 4.522 1.94 6.605 3.469 2.166 1.557 4.143 3.41 5.938 5.569l11.603-9.791c-2.278-2.875-5.097-5.425-8.462-7.662-3.337-2.318-7.011-4.15-11.007-5.504-7.516-2.535-14.022-2.68-19.519-.42-5.412 2.28-9.051 6.358-10.909 12.217-1.227 3.882-1.542 7.256-.94 10.11.625 2.773 1.767 5.17 3.429 7.19a36.52 36.52 0 0 0 5.896 5.288 4093.35 4093.35 0 0 1 6.128 4.128c1.998 1.223 3.561 2.44 4.69 3.642 1.15 1.123 1.486 2.426 1.017 3.91-.421 1.319-1.402 2.18-2.945 2.572-1.514.311-3.351.101-5.51-.63-2.798-.942-5.385-2.412-7.762-4.403a58.211 58.211 0 0 1-6.541-6.605l-11.519 9.958c2.09 2.904 4.9 5.772 8.427 8.61 3.548 2.76 7.845 4.983 12.886 6.692 4.873 1.644 9.458 2.281 13.735 1.897 4.312-.463 8.013-1.817 11.112-4.062 3.106-2.245 5.266-5.302 6.5-9.183 1.226-3.882 1.493-7.228.785-10.023-.603-2.853-1.81-5.323-3.632-7.401" fill-rule="evenodd"/>
    <path fill="#964EFF" fill-opacity=".302" d="M102.3 11.838c29.847 0 54.033 24.715 54.033 55.2v.007c0 30.484-24.193 55.199-54.033 55.199s-54.033-24.715-54.033-55.2c-.007-30.484 24.187-55.206 54.026-55.206h.007ZM101.748.005c-36.28-.007-65.694 29.922-65.701 66.847v.014c0 36.926 29.407 66.862 65.694 66.862h.007c36.286 0 65.694-29.936 65.694-66.862 0-36.925-29.408-66.861-65.694-66.861Z" fill-rule="evenodd"/>
    <path fill="#fff" fill-opacity=".502" d="M227.3 46.78c.566-.462 1.197-.668 1.886-.611l11.319.932 1.355-15.819-11.057-.917c-6.845-.562-12.464.768-16.844 4.004-4.285 3.158-6.7 7.888-7.244 14.176l-.877 10.206-10.274-.846-1.378 16.074 10.274.847-4.017 46.822 19.505 1.615 4.025-46.823 13.914 1.153 1.378-16.082-13.915-1.145 1.015-11.864c.058-.683.37-1.252.936-1.721M267.666 107.825c-.402-.585-.544-1.213-.442-1.876l11.846-73.367-26.922-4.668-2.544 15.775 8.813 1.523-9.234 57.211c-.946 5.846.047 10.698 2.985 14.548 3.026 3.787 7.521 6.199 13.478 7.235l7.963 1.383 2.502-15.521-6.881-1.2c-.64-.112-1.163-.458-1.564-1.043M280.233 74.217l9.945 1.627-6.76 46.798 17.964 2.946 9.084-62.868-27.91-4.573-2.323 16.07ZM296.99 30.24l-2.804 18.843 20.451 3.25 2.805-18.844-20.451-3.25ZM361.97 80.893l3.146-15.74-13.005-2.454 2.971-14.871-19.296-3.635-2.97 14.864-9.903-1.86-3.146 15.741 9.895 1.867-5.213 26.115c-.83 4.165-.86 7.665-.087 10.486.859 2.843 2.22 5.17 4.077 6.994a19.627 19.627 0 0 0 6.379 4.18 39.047 39.047 0 0 0 7.31 2.156l10.668 2.015 3.145-15.748-10.42-1.958c-.684-.135-1.237-.495-1.652-1.09-.423-.6-.561-1.23-.423-1.895l5.52-27.62 13.004 2.453ZM480.583 91.083a28.864 28.864 0 0 0-6.751-4.615 92.592 92.592 0 0 0-6.986-3.205c-2.167-.99-3.944-2.01-5.323-3.045-1.3-1.02-1.826-2.257-1.584-3.711.234-1.367 1.044-2.33 2.43-2.88 1.407-.636 3.205-.759 5.387-.375 2.437.427 4.81 1.237 7.12 2.43a32.026 32.026 0 0 1 6.744 4.615l10.24-11.422c-2.693-2.495-5.89-4.593-9.579-6.293-3.681-1.794-7.618-3.053-11.825-3.79-7.902-1.382-14.44-.543-19.628 2.517-5.11 3.067-8.172 7.639-9.195 13.715-.682 4.022-.512 7.393.497 10.127 1.024 2.648 2.516 4.84 4.47 6.598a36.186 36.186 0 0 0 6.666 4.333c2.402 1.128 4.647 2.177 6.73 3.16 2.181.912 3.922 1.874 5.223 2.894 1.314.934 1.84 2.17 1.577 3.711-.227 1.368-1.087 2.366-2.58 2.98-1.47.536-3.346.608-5.613.21-2.942-.513-5.75-1.577-8.414-3.19a58.379 58.379 0 0 1-7.504-5.534l-10.127 11.567c2.509 2.554 5.735 4.97 9.679 7.241 3.958 2.192 8.584 3.748 13.878 4.673 5.124.897 9.807.84 14.05-.18 4.25-1.107 7.774-3.002 10.56-5.686 2.785-2.684 4.52-6.033 5.202-10.055.675-4.022.461-7.364-.647-10.026-1.01-2.727-2.573-4.984-4.697-6.764" fill-rule="evenodd"/>
    <path fill="#fff" fill-opacity=".2" d="M405.25 74.146c2.16-.847 4.537-.797 7.136.166 2.21.811 3.868 2.154 4.997 4.036 1.122 1.875 1.56 4.195 1.317 6.938-.056 1.078-.356 2.256-.69 3.455l-19.945-7.355c.516-.948 1.032-1.889 1.617-2.7 1.63-2.148 3.484-3.663 5.568-4.54Zm25.569 32.638c3.533-7.118 5.275-13.798 5.226-20.047.021-6.213-1.61-11.621-4.899-16.218-3.178-4.654-7.84-8.109-13.98-10.379-5.672-2.09-11.108-2.535-16.32-1.343-5.178 1.106-9.757 3.541-13.722 7.298-3.944 3.67-6.899 8.346-8.871 14.027l-.418 1.221c-2.147 6.163-2.76 12.024-1.84 17.583.913 5.552 3.122 10.443 6.627 14.667 3.617 4.166 8.377 7.34 14.28 9.524l.006-.008c4.962 1.832 9.652 2.65 14.077 2.45 4.419-.201 8.426-1.516 12.028-3.943l-6.369-14.294c-2.056 1.07-4.119 1.774-6.188 2.112-2.05.251-4.481-.144-7.318-1.192-2.913-1.07-5.17-2.5-6.773-4.281-1.575-1.86-2.537-3.958-2.885-6.278-.147-1.472 0-3.002.292-4.56l37.047 13.66Z" fill-rule="evenodd"/>
    <path fill="#6738C2" d="M81.37 11.84c29.847 0 54.033 24.714 54.033 55.199v.007c0 30.484-24.193 55.198-54.033 55.198S27.337 97.53 27.337 67.046C27.33 36.56 51.523 11.84 81.363 11.84h.007ZM80.818.007C44.538 0 15.123 29.93 15.116 66.853v.015c0 36.924 29.408 66.86 65.694 66.86h.008c36.286 0 65.694-29.936 65.694-66.86 0-36.925-29.408-66.86-65.694-66.86Z" fill-rule="evenodd"/>
    <path fill="#964EFF" d="M66.252 21.143c29.848 0 54.035 24.713 54.035 55.198v.007c0 30.484-24.194 55.198-54.035 55.198-29.84 0-54.034-24.714-54.034-55.198-.007-30.484 24.187-55.205 54.027-55.205h.007ZM65.7 9.309C29.42 9.302.004 39.231-.003 76.163v.007c0 36.925 29.408 66.86 65.696 66.86h.007c36.287 0 65.695-29.935 65.695-66.86S101.987 9.31 65.7 9.31Z" fill-rule="evenodd"/>
    <path fill="#fff" fill-opacity=".502" d="M395.368 75.65c2.017-1.232 4.41-1.617 7.187-1.16 2.351.391 4.262 1.396 5.725 3.02 1.463 1.626 2.315 3.806 2.556 6.528.135 1.07.043 2.274-.078 3.5l-21.3-3.5c.349-1.019.697-2.03 1.13-2.936 1.257-2.387 2.848-4.211 4.78-5.451Zm31.441 27.138c2.28-7.597 2.834-14.438 1.67-20.524-1.08-6.072-3.68-11.046-7.799-14.93-4.013-3.955-9.304-6.47-15.866-7.546-6.051-.998-11.584-.435-16.598 1.689-4.993 2.038-9.148 5.252-12.458 9.649-3.295 4.311-5.426 9.42-6.385 15.328l-.213 1.269c-1.044 6.413-.617 12.243 1.293 17.495 1.903 5.259 4.993 9.62 9.261 13.09 4.368 3.407 9.702 5.63 16.016 6.664l.007.014c5.298.87 10.142.798 14.538-.214 4.404-1.012 8.182-3.029 11.357-6.064l-8.928-12.77c-1.875 1.425-3.814 2.486-5.83 3.199-2.003.62-4.518.677-7.543.178-3.118-.506-5.632-1.49-7.557-2.929-1.91-1.525-3.246-3.392-4.006-5.6-.412-1.412-.54-2.93-.525-4.505l39.566 6.507Z" fill-rule="evenodd"/>
    <path fill="#FEFEFE" d="M210.624 39.08c-4.033 3.483-6.049 8.368-6.049 14.654V63.93h-10.389v16.056h10.389v46.766h19.726V79.985h14.071V63.929h-14.071V52.078c0-.68.263-1.274.789-1.784s1.14-.765 1.841-.765h11.441V33.728h-11.178c-6.926 0-12.45 1.784-16.57 5.352M272.186 110.168c-.52-.515-.772-1.107-.764-1.784l.692-74.395-28.947-.261-.144 15.998 9.476.084-.541 58.023c-.05 5.925 1.767 10.553 5.459 13.889 3.772 3.252 8.863 4.902 15.267 4.959l8.567.07.144-15.743-7.399-.064c-.692-.007-1.298-.26-1.81-.776" fill-rule="evenodd"/>
    <path fill="#fff" d="M280.233 80.009h10.355v46.742h18.715v-62.79h-29.07v16.048Z" fill-rule="evenodd"/>
    <path fill="#FEFEFE" d="M290.698 33.728h19.767v18.605h-19.767V33.728Z"/>
    <path fill="#FEFEFE" d="M349.9 48.844h-19.143v15.149h-9.827v16.04h9.827v26.605c0 4.243.638 7.68 1.914 10.311 1.362 2.631 3.106 4.668 5.233 6.11a19.02 19.02 0 0 0 6.892 2.928c2.552.51 5.02.764 7.402.764h10.592v-16.04h-10.337c-.68 0-1.276-.254-1.787-.763-.51-.51-.765-1.103-.765-1.782V80.033h12.89v-16.04H349.9V48.844Z" fill-rule="evenodd"/>
    <path fill="#fff" d="M389.032 89.413c.176-1.063.36-2.132.64-3.101.846-2.584 2.113-4.651 3.803-6.202 1.775-1.55 4.056-2.325 6.844-2.325 2.366 0 4.394.689 6.084 2.067 1.69 1.378 2.873 3.402 3.549 6.072.303 1.034.408 2.247.479 3.489h-21.399Zm27.884-21.706c-4.563-3.273-10.14-4.91-16.73-4.91-6.084 0-11.407 1.465-15.97 4.394-4.563 2.842-8.112 6.718-10.647 11.627-2.535 4.824-3.802 10.25-3.802 16.28v1.292c0 6.546 1.352 12.273 4.056 17.183 2.704 4.91 6.421 8.742 11.153 11.499 4.816 2.67 10.393 4.005 16.73 4.005h.007c5.324 0 10.055-.861 14.196-2.584 4.14-1.723 7.52-4.35 10.14-7.881l-10.774-11.24c-1.605 1.722-3.338 3.1-5.196 4.134-1.86.947-4.31 1.421-7.352 1.421-3.126 0-5.745-.56-7.858-1.68-2.112-1.205-3.718-2.842-4.816-4.91-.627-1.334-.993-2.827-1.232-4.392h39.755c1.014-7.924.465-14.815-1.648-20.672-2.028-5.857-5.365-10.379-10.012-13.566Z" fill-rule="evenodd"/>
    <path fill="#FEFEFE" d="M480.253 92.76a29.185 29.185 0 0 0-7.475-3.373 95.711 95.711 0 0 0-7.475-1.945c-2.32-.606-4.253-1.297-5.8-2.076-1.46-.778-2.19-1.902-2.19-3.372 0-1.383.644-2.464 1.933-3.243 1.288-.864 3.05-1.297 5.284-1.297 2.491 0 4.983.39 7.475 1.168 2.577.778 5.069 1.902 7.475 3.372l8.248-12.97c-3.093-1.99-6.616-3.502-10.568-4.54-3.952-1.124-8.077-1.686-12.373-1.686-8.076 0-14.434 1.945-19.074 5.837-4.554 3.89-6.83 8.906-6.83 15.045 0 4.064.73 7.35 2.19 9.858 1.461 2.421 3.308 4.323 5.542 5.707a36.802 36.802 0 0 0 7.346 3.113c2.578.691 4.984 1.34 7.218 1.945 2.32.52 4.21 1.168 5.67 1.946 1.461.692 2.191 1.816 2.191 3.372 0 1.384-.687 2.508-2.062 3.372-1.374.779-3.222 1.168-5.541 1.168-3.008 0-5.972-.562-8.893-1.686a58.005 58.005 0 0 1-8.378-4.15l-8.119 13.1c2.921 2.075 6.53 3.89 10.826 5.447 4.296 1.47 9.15 2.205 14.564 2.205 5.24 0 9.88-.865 13.919-2.594 4.038-1.816 7.217-4.28 9.537-7.393 2.32-3.113 3.48-6.702 3.48-10.766s-.774-7.307-2.32-9.728c-1.46-2.507-3.394-4.453-5.8-5.836Z" fill-rule="evenodd"/>
</svg>
