<svg width="180" height="53" xml:space="preserve" xmlns="http://www.w3.org/2000/svg">
    <path fill="#fff" fill-opacity=".2" d="M85.592 17.279a.908.908 0 0 1 .705-.108l3.94.99 1.437-5.527-3.852-.968c-2.385-.598-4.45-.453-6.194.437-1.707.869-2.845 2.405-3.416 4.603l-.925 3.566-3.58-.9-1.458 5.618 3.58.9-4.248 16.359 6.797 1.707 4.248-16.359 4.847 1.217 1.458-5.616-4.848-1.219 1.076-4.146a.882.882 0 0 1 .433-.554M96.266 38.54a.878.878 0 0 1-.052-.693l8.856-25.337-9.852-3.298-1.904 5.448 3.227 1.079-6.905 19.76c-.706 2.016-.623 3.8.252 5.349.913 1.528 2.459 2.658 4.64 3.386l2.91.978 1.873-5.362-2.518-.842a.891.891 0 0 1-.527-.468M103.448 25.223l3.647 1.217-5.374 16.152 6.592 2.201 7.222-21.698-10.241-3.418-1.846 5.546ZM112.202 10.468l-2.109 6.702 7.098 2.507 2.111-6.703-7.1-2.506ZM129.107 28.053l4.555 1.53 1.966-5.511-4.558-1.527 1.858-5.203-6.762-2.27-1.855 5.203-3.469-1.164-1.963 5.51 3.466 1.163-3.26 9.14c-.516 1.458-.71 2.715-.582 3.769.159 1.066.524 1.971 1.1 2.72a7.021 7.021 0 0 0 2.077 1.822 13.99 13.99 0 0 0 2.52 1.138l3.738 1.257 1.964-5.51-3.651-1.224a.912.912 0 0 1-.538-.476.86.86 0 0 1-.053-.702l3.447-9.665ZM174.91 33.713a10.429 10.429 0 0 0-2.138-2.005 33.142 33.142 0 0 0-2.292-1.517c-.712-.47-1.282-.926-1.716-1.369-.406-.433-.528-.902-.366-1.408.149-.477.484-.774 1-.896.524-.152 1.163-.102 1.91.15a8.782 8.782 0 0 1 2.378 1.25c.78.56 1.491 1.227 2.137 2.004l4.178-3.524c-.82-1.035-1.835-1.953-3.047-2.759a15.795 15.795 0 0 0-3.963-1.981c-2.705-.913-5.047-.965-7.026-.151-1.949.82-3.259 2.289-3.927 4.398-.442 1.397-.556 2.612-.339 3.64.225.998.636 1.86 1.235 2.588.636.71 1.342 1.343 2.122 1.903l2.206 1.486c.72.441 1.282.88 1.689 1.312.414.404.535.873.366 1.408-.152.474-.505.784-1.06.925-.546.112-1.207.037-1.984-.227a8.598 8.598 0 0 1-2.794-1.585 20.956 20.956 0 0 1-2.355-2.377l-4.147 3.584c.752 1.046 1.764 2.078 3.034 3.1 1.277.994 2.824 1.794 4.639 2.41 1.754.591 3.405.82 4.944.682 1.552-.167 2.885-.654 4-1.462 1.119-.809 1.896-1.909 2.34-3.306.442-1.398.538-2.602.283-3.608-.217-1.028-.651-1.917-1.307-2.665" fill-rule="evenodd"/>
    <path fill="#fff" fill-opacity=".502" d="M81.828 16.841a.922.922 0 0 1 .679-.22l4.075.335.488-5.694-3.98-.33c-2.465-.203-4.488.276-6.065 1.44-1.542 1.138-2.412 2.84-2.607 5.104l-.316 3.674-3.699-.304-.496 5.787 3.699.304-1.446 16.856 7.021.582 1.45-16.856 5.008.414.496-5.789-5.009-.412.366-4.271a.877.877 0 0 1 .336-.62M96.36 38.817a.912.912 0 0 1-.16-.675l4.265-26.412-9.692-1.68-.915 5.678 3.172.548-3.324 20.596c-.34 2.105.017 3.852 1.075 5.238 1.089 1.363 2.707 2.231 4.852 2.604l2.866.498.901-5.588-2.477-.431a.843.843 0 0 1-.563-.376M100.884 26.718l3.58.586-2.433 16.847 6.467 1.06 3.27-22.632-10.048-1.646-.836 5.785ZM106.917 10.886l-1.01 6.784 7.362 1.17 1.01-6.784-7.362-1.17ZM130.31 29.122l1.132-5.667-4.682-.883 1.07-5.354-6.947-1.309-1.07 5.352-3.565-.67-1.132 5.667 3.562.672-1.876 9.401c-.3 1.5-.31 2.76-.032 3.775.31 1.024.8 1.861 1.468 2.518a7.066 7.066 0 0 0 2.296 1.504c.889.357 1.767.614 2.632.777l3.84.725 1.133-5.669-3.751-.705a.92.92 0 0 1-.595-.392.844.844 0 0 1-.152-.682l1.986-9.944 4.682.884ZM173.01 32.79a10.391 10.391 0 0 0-2.43-1.662c-.86-.437-1.7-.82-2.515-1.153-.78-.357-1.42-.724-1.916-1.097-.469-.367-.658-.812-.571-1.335.084-.493.376-.839.875-1.037.507-.23 1.154-.273 1.94-.135a8.907 8.907 0 0 1 2.563.875c.86.437 1.67.99 2.427 1.661l3.687-4.112c-.97-.898-2.121-1.654-3.449-2.266a15.943 15.943 0 0 0-4.257-1.364c-2.845-.498-5.198-.195-7.066.906-1.84 1.104-2.942 2.75-3.31 4.938-.246 1.448-.184 2.661.179 3.646.368.953.906 1.742 1.61 2.375a13.027 13.027 0 0 0 2.399 1.56c.865.406 1.673.783 2.423 1.137.785.329 1.412.675 1.88 1.042.473.336.662.781.568 1.336-.082.492-.392.852-.929 1.073-.53.193-1.205.219-2.02.076a8.701 8.701 0 0 1-3.03-1.149 21.016 21.016 0 0 1-2.701-1.992l-3.646 4.164c.903.92 2.065 1.789 3.484 2.607 1.425.789 3.09 1.349 4.997 1.682 1.844.323 3.53.302 5.057-.065 1.53-.399 2.8-1.08 3.802-2.047 1.003-.966 1.627-2.172 1.873-3.62.243-1.448.166-2.65-.233-3.61-.363-.98-.926-1.793-1.691-2.434" fill-rule="evenodd"/>
    <path fill="#fff" fill-opacity=".2" d="M145.89 26.693c.778-.305 1.633-.287 2.569.06.795.291 1.392.775 1.799 1.452.404.675.562 1.51.474 2.498-.02.388-.128.812-.249 1.244l-7.18-2.648c.186-.341.372-.68.582-.972.587-.773 1.255-1.319 2.005-1.634Zm9.205 11.75c1.271-2.563 1.899-4.968 1.881-7.218.008-2.236-.58-4.183-1.764-5.838-1.144-1.676-2.822-2.92-5.032-3.736-2.042-.753-4-.913-5.876-.484-1.864.398-3.512 1.275-4.94 2.627-1.42 1.321-2.483 3.005-3.193 5.05l-.15.44c-.773 2.218-.994 4.328-.663 6.33.329 1.998 1.124 3.759 2.386 5.28 1.302 1.5 3.015 2.642 5.14 3.428l.003-.003c1.786.66 3.474.955 5.068.882a8.273 8.273 0 0 0 4.33-1.42l-2.293-5.145a7.394 7.394 0 0 1-2.228.76c-.738.09-1.613-.051-2.634-.429-1.049-.385-1.862-.9-2.439-1.541a4.472 4.472 0 0 1-1.038-2.26c-.053-.53 0-1.08.105-1.642l13.337 4.918Z" fill-rule="evenodd"/>
    <path fill="#fff" fill-opacity=".502" d="M142.333 27.234c.726-.444 1.587-.582 2.587-.418.846.141 1.534.503 2.06 1.088.528.585.834 1.37.921 2.35.049.385.016.818-.028 1.26l-7.668-1.26c.126-.367.25-.731.407-1.057.452-.86 1.025-1.516 1.72-1.963Zm11.319 9.77c.82-2.735 1.02-5.198.6-7.389-.388-2.186-1.324-3.976-2.807-5.375-1.445-1.423-3.35-2.329-5.712-2.716-2.178-.36-4.17-.157-5.975.608-1.798.733-3.293 1.89-4.485 3.473-1.186 1.552-1.953 3.392-2.298 5.519l-.077.456c-.376 2.31-.222 4.408.465 6.298.686 1.894 1.798 3.464 3.334 4.713 1.573 1.226 3.493 2.027 5.766 2.399l.003.005c1.907.313 3.65.287 5.233-.077 1.586-.364 2.946-1.09 4.089-2.183l-3.214-4.598a7.702 7.702 0 0 1-2.1 1.152c-.72.224-1.626.244-2.715.064-1.122-.182-2.027-.536-2.72-1.054a4.356 4.356 0 0 1-1.442-2.016c-.149-.508-.195-1.055-.19-1.622l14.245 2.343Z" fill-rule="evenodd"/>
    <path fill="#FEFEFE" d="M75.825 14.069c-1.452 1.254-2.178 3.012-2.178 5.275v3.67h-3.74v5.78h3.74V45.63h7.101V28.795h5.066v-5.78h-5.066v-4.267c0-.245.095-.459.284-.642a.923.923 0 0 1 .663-.275h4.119v-5.689H81.79c-2.493 0-4.482.642-5.965 1.927M97.987 39.66a.862.862 0 0 1-.275-.642l.25-26.782-10.422-.094-.052 5.76 3.412.03-.195 20.888c-.018 2.133.636 3.799 1.965 5 1.358 1.17 3.19 1.765 5.496 1.785l3.084.025.052-5.667-2.663-.023a.902.902 0 0 1-.652-.28" fill-rule="evenodd"/>
    <path fill="#fff" d="M100.884 28.803h3.728V45.63h6.737V23.026h-10.465v5.777Z" fill-rule="evenodd"/>
    <path fill="#FEFEFE" d="M104.651 12.142h7.116v6.698h-7.116v-6.698Z"/>
    <path fill="#FEFEFE" d="M125.964 17.584h-6.891v5.453h-3.538v5.775h3.538v9.578c0 1.527.23 2.765.689 3.712.49.947 1.118 1.68 1.884 2.2.765.519 1.592.87 2.48 1.054.92.183 1.808.275 2.665.275h3.814v-5.775h-3.722a.883.883 0 0 1-.643-.275.878.878 0 0 1-.276-.641V28.812h4.64v-5.775h-4.64v-5.453Z" fill-rule="evenodd"/>
    <path fill="#fff" d="M140.051 32.189c.064-.383.13-.768.231-1.117.304-.93.76-1.674 1.369-2.232.639-.558 1.46-.837 2.464-.837.852 0 1.582.248 2.19.744.608.496 1.034 1.225 1.278 2.186.109.372.147.809.172 1.256h-7.704Zm10.039-7.814c-1.643-1.179-3.65-1.768-6.023-1.768-2.19 0-4.107.527-5.75 1.582-1.642 1.023-2.92 2.418-3.832 4.186-.913 1.736-1.369 3.69-1.369 5.86v.465c0 2.357.487 4.419 1.46 6.186.973 1.768 2.312 3.148 4.015 4.14 1.734.961 3.742 1.442 6.023 1.442h.003c1.916 0 3.62-.31 5.11-.93a8.54 8.54 0 0 0 3.65-2.838l-3.878-4.046a7.633 7.633 0 0 1-1.87 1.488c-.67.341-1.552.512-2.647.512-1.126 0-2.069-.202-2.83-.605a4.366 4.366 0 0 1-1.733-1.767c-.226-.481-.357-1.018-.444-1.582h14.312c.365-2.852.168-5.333-.593-7.442-.73-2.108-1.931-3.736-3.604-4.883Z" fill-rule="evenodd"/>
    <path fill="#FEFEFE" d="M172.891 33.393a10.507 10.507 0 0 0-2.69-1.214 34.456 34.456 0 0 0-2.692-.7c-.835-.218-1.531-.467-2.088-.747-.526-.28-.788-.685-.788-1.214 0-.498.232-.887.695-1.167.464-.312 1.099-.467 1.903-.467.897 0 1.794.14 2.69.42.929.28 1.826.685 2.692 1.214l2.97-4.67c-1.114-.715-2.382-1.26-3.805-1.634a16.203 16.203 0 0 0-4.454-.607c-2.908 0-5.197.7-6.867 2.101-1.64 1.401-2.46 3.207-2.46 5.417 0 1.463.264 2.646.79 3.549.525.871 1.19 1.556 1.995 2.054.835.467 1.716.84 2.644 1.12.928.25 1.794.483 2.598.701.836.187 1.516.42 2.042.7.526.25.789.654.789 1.215 0 .498-.248.902-.743 1.214-.495.28-1.16.42-1.995.42a8.849 8.849 0 0 1-3.201-.607 20.882 20.882 0 0 1-3.016-1.494l-2.923 4.716c1.052.747 2.35 1.4 3.897 1.96 1.547.53 3.295.795 5.243.795 1.887 0 3.557-.312 5.011-.934 1.454-.654 2.598-1.541 3.433-2.662.836-1.12 1.253-2.412 1.253-3.875s-.278-2.63-.835-3.502a5.652 5.652 0 0 0-2.088-2.102Z" fill-rule="evenodd"/>
    <path style="fill:#895bf6;fill-opacity:1;stroke:none;stroke-width:2.36965;stroke-miterlimit:4;stroke-dasharray:none;stroke-opacity:.998041" d="M653.07 342.775a12.364 12.513 0 0 0-12.365 12.514 12.364 12.513 0 0 0 12.365 12.514 12.364 12.513 0 0 0 12.364-12.514 12.364 12.513 0 0 0-12.364-12.514zm.104 2.215a10.17 10.331 0 0 1 10.17 10.332 10.17 10.331 0 0 1-10.17 10.33 10.17 10.331 0 0 1-10.17-10.33 10.17 10.331 0 0 1 10.17-10.332z" transform="translate(-1214.958 -657.106) scale(1.91747)"/>
    <path style="opacity:.371322;fill:#895bf6;fill-opacity:1;stroke:none;stroke-width:.62697;stroke-miterlimit:4;stroke-dasharray:none;stroke-opacity:.998041" d="M171.88 90.976a3.271 3.31 0 0 0-3.27 3.31 3.271 3.31 0 0 0 3.27 3.312 3.271 3.31 0 0 0 3.272-3.311 3.271 3.31 0 0 0-3.271-3.311zm.028.586a2.69 2.733 0 0 1 2.69 2.733 2.69 2.733 0 0 1-2.69 2.734 2.69 2.733 0 0 1-2.69-2.734 2.69 2.733 0 0 1 2.69-2.733z" transform="translate(-1214.958 -657.106) scale(7.24713)"/>
    <path style="opacity:.163747;fill:#895bf6;fill-opacity:1;stroke:none;stroke-width:.62697;stroke-miterlimit:4;stroke-dasharray:none;stroke-opacity:.998041" d="M170.993 91.344a3.271 3.31 0 0 0-3.272 3.31 3.271 3.31 0 0 0 3.272 3.311 3.271 3.31 0 0 0 3.27-3.31 3.271 3.31 0 0 0-3.27-3.311zm.027.586a2.69 2.733 0 0 1 2.69 2.733 2.69 2.733 0 0 1-2.69 2.734 2.69 2.733 0 0 1-2.69-2.734 2.69 2.733 0 0 1 2.69-2.733z" transform="translate(-1214.958 -657.106) scale(7.24713)"/>
</svg>
