<svg width="95.802" height="27.167" viewBox="0 0 25.347 7.188" xmlns="http://www.w3.org/2000/svg">
    <path style="fill:#895bf6;fill-opacity:1;stroke:none;stroke-width:.62697;stroke-miterlimit:4;stroke-dasharray:none;stroke-opacity:.998041" d="M172.82 90.693a3.271 3.31 0 0 0-3.272 3.31 3.271 3.31 0 0 0 3.272 3.311 3.271 3.31 0 0 0 3.271-3.31 3.271 3.31 0 0 0-3.271-3.311zm.027.586a2.69 2.733 0 0 1 2.691 2.733 2.69 2.733 0 0 1-2.69 2.734 2.69 2.733 0 0 1-2.691-2.734 2.69 2.733 0 0 1 2.69-2.733z" transform="translate(-167.67 -90.693)"/>
    <path style="opacity:.6;fill:#895bf6;fill-opacity:1;stroke:none;stroke-width:.62697;stroke-miterlimit:4;stroke-dasharray:none;stroke-opacity:.998041" d="M171.88 90.976a3.271 3.31 0 0 0-3.27 3.31 3.271 3.31 0 0 0 3.27 3.312 3.271 3.31 0 0 0 3.272-3.311 3.271 3.31 0 0 0-3.271-3.311zm.028.586a2.69 2.733 0 0 1 2.69 2.733 2.69 2.733 0 0 1-2.69 2.734 2.69 2.733 0 0 1-2.69-2.734 2.69 2.733 0 0 1 2.69-2.733z" transform="translate(-167.67 -90.693)"/>
    <path style="opacity:.33;fill:#895bf6;fill-opacity:1;stroke:none;stroke-width:.62697;stroke-miterlimit:4;stroke-dasharray:none;stroke-opacity:.998041" d="M170.941 91.259a3.271 3.31 0 0 0-3.271 3.31 3.271 3.31 0 0 0 3.271 3.312 3.271 3.31 0 0 0 3.272-3.311 3.271 3.31 0 0 0-3.272-3.311zm.028.586a2.69 2.733 0 0 1 2.69 2.733 2.69 2.733 0 0 1-2.69 2.734 2.69 2.733 0 0 1-2.691-2.734 2.69 2.733 0 0 1 2.69-2.733z" transform="translate(-167.67 -90.693)"/>
    <g style="fill:#fff">
        <g style="fill:#fff">
            <path d="M177.944 69.565v-3.638q0-.47.293-.73.298-.267.8-.267h.54v.787h-.553q-.05 0-.089.038-.038.038-.038.09v3.72zm-.501-2.33v-.8h2.133v.8zM181.347 69.568q-.47-.005-.747-.249-.271-.25-.267-.694l.03-3.327.421.429-.889-.008.007-.8 1.416.013-.033 3.72q0 .051.037.09.038.038.089.039l.362.003-.007.787zM182.262 69.565V66.81l.426.426h-.953v-.8h1.48v3.13zm-.044-3.695v-.94h1.054v.94zM185.266 69.565q-.178 0-.368-.038-.184-.038-.343-.146-.159-.108-.26-.305-.096-.196-.096-.514v-2.883h.953v2.96q0 .05.038.088.038.038.089.038h.514v.8zm-1.556-2.33v-.8h2.083v.8zM187.742 69.629q-.476 0-.838-.197-.355-.203-.559-.565-.203-.362-.203-.845v-.063q0-.445.19-.8.191-.362.534-.572.343-.216.8-.216.496 0 .838.242.35.235.502.666.159.432.083 1.016h-2.261v-.616h1.759l-.426.305q.051-.286-.006-.476-.05-.197-.177-.299-.127-.101-.305-.101-.21 0-.343.114-.127.114-.19.305-.058.19-.058.432v.19q0 .203.077.362.082.153.24.242.16.082.394.082.23 0 .369-.07.14-.076.26-.203l.54.552q-.197.26-.508.388-.311.127-.711.127zM190.676 69.616q-.4 0-.717-.108-.318-.114-.534-.267l.4-.64q.203.12.413.202.216.083.438.083.172 0 .273-.057.102-.064.102-.165 0-.115-.108-.165-.108-.058-.28-.096l-.355-.095q-.19-.057-.362-.152-.165-.102-.273-.28-.108-.184-.108-.482 0-.451.336-.737.343-.286.94-.286.318 0 .61.083.292.076.52.222l-.406.635q-.178-.108-.368-.165-.184-.057-.368-.057-.166 0-.26.063-.096.057-.096.16 0 .107.108.164.114.057.286.102.177.038.368.095.197.057.368.165.178.102.286.286.114.178.114.476 0 .299-.171.527-.172.229-.47.362-.298.127-.686.127z" style="font-weight:800;font-size:24px;line-height:1.25;font-family:SUSE;-inkscape-font-specification:'SUSE Ultra-Bold';font-variant-ligatures:none;white-space:pre;fill:#fff;stroke-width:.264583" transform="translate(-167.241 -63.712)"/>
        </g>
        <g style="opacity:.277431;fill:#fff">
            <path d="m177.752 69.51.305-3.626q.04-.468.353-.703.32-.24.82-.199l.537.045-.066.785-.55-.046q-.051-.005-.092.03-.042.035-.046.086l-.312 3.708zm-.304-2.365.067-.797 2.126.18-.067.796zM180.978 69.62q-.464-.079-.7-.363-.228-.289-.155-.727l.55-3.282.35.49-.878-.147.132-.79 1.397.235-.615 3.67q-.008.05.023.094.032.044.082.052l.357.06-.13.776zM181.91 69.515l.42-2.724.356.486-.942-.145.122-.79 1.462.224-.476 3.094zm.519-3.66.142-.928 1.042.16-.143.93zM184.886 69.628q-.174-.034-.354-.108-.173-.072-.309-.209-.135-.136-.197-.348-.056-.212.004-.523l.549-2.83.935.18-.564 2.906q-.01.05.02.094.03.045.08.055l.506.098-.153.785zm-1.083-2.584.153-.786 2.044.397-.152.785zM187.478 69.626q-.47-.077-.796-.33-.318-.258-.46-.648-.142-.39-.064-.866l.01-.063q.072-.438.318-.759.246-.326.619-.477.373-.158.824-.084.489.08.788.374.307.288.388.739.086.451-.083 1.016l-2.231-.366.1-.608 1.735.285-.469.232q.096-.274.071-.471-.018-.203-.127-.324-.109-.12-.284-.15-.207-.033-.357.058-.144.093-.237.27-.088.179-.127.417l-.03.188q-.033.2.016.37.057.163.2.277.143.107.375.145.225.037.374-.01.15-.052.29-.158l.443.632q-.236.226-.564.3-.327.076-.722.011zM190.402 69.586q-.394-.067-.689-.228-.293-.166-.48-.353l.502-.564q.18.153.373.27.199.118.418.156.169.029.278-.01.111-.046.129-.146.019-.113-.079-.181-.097-.075-.26-.141l-.333-.154q-.179-.089-.331-.212-.146-.128-.222-.321-.075-.2-.025-.494.076-.445.457-.67.386-.223.974-.122.313.054.587.185.275.124.475.307l-.508.557q-.157-.137-.335-.225-.171-.088-.353-.119-.163-.028-.267.019-.104.04-.12.14-.02.106.077.181.103.076.265.149.169.067.347.156.184.09.335.225.158.13.233.33.083.194.032.489-.05.294-.258.49-.208.196-.525.277-.315.075-.697.01z" style="font-weight:800;font-size:24px;line-height:1.25;font-family:SUSE;-inkscape-font-specification:'SUSE Ultra-Bold';font-variant-ligatures:none;white-space:pre;fill:#fff;stroke-width:.264583" transform="translate(-167.296 -63.917)"/>
        </g>
        <g style="opacity:.189503;fill:#fff">
            <path d="m177.396 69.338.9-3.526q.116-.455.464-.635.355-.185.84-.06l.524.133-.195.763-.535-.137q-.05-.012-.096.015-.046.028-.059.077l-.92 3.605zm.09-2.382.198-.776 2.068.528-.198.776zM180.59 69.602q-.445-.152-.631-.471-.178-.323-.035-.743l1.077-3.149.265.54-.841-.287.258-.757 1.34.458-1.204 3.52q-.016.049.007.097.024.049.072.065l.342.117-.254.745zM181.548 69.354l.871-2.614.27.538-.904-.301.253-.76 1.403.469-.99 2.97zm1.126-3.52.297-.891 1 .333-.297.892zM184.61 69.606q-.167-.058-.335-.156-.162-.097-.276-.25-.115-.154-.147-.374-.025-.217.078-.517l.942-2.724.9.31-.967 2.797q-.017.048.007.097.024.048.072.065l.486.168-.262.756zm-.708-2.711.262-.756 1.968.68-.262.757zM187.19 69.572q-.448-.16-.723-.468-.266-.311-.336-.72-.07-.41.093-.864l.022-.06q.15-.418.449-.689.301-.277.695-.358.395-.088.826.066.466.167.708.51.25.338.247.796.004.46-.264.985l-2.129-.762.208-.58 1.656.593-.503.143q.144-.252.154-.45.019-.203-.066-.341-.086-.138-.253-.198-.198-.07-.362-.008-.158.065-.282.223-.118.16-.199.387l-.064.18q-.069.19-.05.366.026.171.146.308.121.131.342.21.216.078.37.059.158-.025.314-.104l.322.702q-.273.179-.608.194-.336.015-.713-.12zM190.174 69.525q-.38-.124-.648-.325-.266-.208-.424-.42l.58-.485q.155.178.329.322.18.145.39.214.163.054.278.03.116-.028.148-.124.035-.11-.052-.19-.084-.089-.235-.178l-.309-.201q-.163-.114-.296-.258-.126-.148-.173-.35-.045-.209.048-.493.14-.428.548-.595.415-.165.983.02.301.1.553.269.254.163.426.373l-.584.477q-.135-.158-.298-.271-.158-.112-.333-.17-.157-.05-.267-.02-.108.025-.14.121-.033.103.051.19.091.09.24.186.158.092.32.205.17.116.3.272.137.152.182.36.054.205-.04.488-.092.284-.326.448-.234.164-.56.198-.322.028-.69-.093z" style="font-weight:800;font-size:24px;line-height:1.25;font-family:SUSE;-inkscape-font-specification:'SUSE Ultra-Bold';font-variant-ligatures:none;white-space:pre;fill:#fff;stroke-width:.264583" transform="translate(-166.972 -63.963)"/>
        </g>
    </g>
</svg>
