<svg width="31.527" height="27.488" viewBox="0 0 8.342 7.273" xmlns="http://www.w3.org/2000/svg">
    <path style="fill:#fff;stroke:none;stroke-width:2.36965;stroke-miterlimit:4;stroke-dasharray:none;stroke-opacity:.998041" d="M653.07 342.775a12.364 12.513 0 0 0-12.365 12.514 12.364 12.513 0 0 0 12.365 12.514 12.364 12.513 0 0 0 12.364-12.514 12.364 12.513 0 0 0-12.364-12.514zm.104 2.215a10.17 10.331 0 0 1 10.17 10.332 10.17 10.331 0 0 1-10.17 10.33 10.17 10.331 0 0 1-10.17-10.33 10.17 10.331 0 0 1 10.17-10.332z" transform="matrix(.26458 0 0 .26458 -167.721 -90.693)"/>
    <path style="opacity:.371322;fill:#fff;stroke:none;stroke-width:.62697;stroke-miterlimit:4;stroke-dasharray:none;stroke-opacity:.998041" d="M171.88 90.976a3.271 3.31 0 0 0-3.27 3.31 3.271 3.31 0 0 0 3.27 3.312 3.271 3.31 0 0 0 3.272-3.311 3.271 3.31 0 0 0-3.271-3.311zm.028.586a2.69 2.733 0 0 1 2.69 2.733 2.69 2.733 0 0 1-2.69 2.734 2.69 2.733 0 0 1-2.69-2.734 2.69 2.733 0 0 1 2.69-2.733z" transform="translate(-167.721 -90.693)"/>
    <path style="opacity:.163747;fill:#fff;stroke:none;stroke-width:.62697;stroke-miterlimit:4;stroke-dasharray:none;stroke-opacity:.998041" d="M170.993 91.344a3.271 3.31 0 0 0-3.272 3.31 3.271 3.31 0 0 0 3.272 3.311 3.271 3.31 0 0 0 3.27-3.31 3.271 3.31 0 0 0-3.27-3.311zm.027.586a2.69 2.733 0 0 1 2.69 2.733 2.69 2.733 0 0 1-2.69 2.734 2.69 2.733 0 0 1-2.69-2.734 2.69 2.733 0 0 1 2.69-2.733z" transform="translate(-167.721 -90.693)"/>
</svg>
