<?xml version="1.0" standalone="no"?>
<!DOCTYPE svg PUBLIC "-//W3C//DTD SVG 20010904//EN"
 "http://www.w3.org/TR/2001/REC-SVG-20010904/DTD/svg10.dtd">
<svg version="1.0" xmlns="http://www.w3.org/2000/svg"
 width="256.000000pt" height="256.000000pt" viewBox="0 0 256.000000 256.000000"
 preserveAspectRatio="xMidYMid meet">
<metadata>
Created by potrace 1.16, written by Peter Selinger 2001-2019
</metadata>
<g transform="translate(0.000000,256.000000) scale(0.100000,-0.100000)"
fill="#000000" stroke="none">
<path d="M620 1770 c-15 -15 -20 -33 -20 -70 0 -43 -3 -50 -22 -55 -13 -4 -61
-32 -108 -64 -82 -55 -86 -59 -104 -116 -10 -33 -27 -79 -37 -103 -11 -23 -19
-51 -19 -62 0 -29 27 -24 44 8 13 23 15 24 16 7 1 -35 20 5 20 43 0 71 61 152
114 152 24 0 36 -77 20 -129 -19 -63 -18 -98 6 -130 11 -17 22 -53 26 -92 l6
-65 -53 -54 c-30 -31 -70 -73 -90 -95 -19 -22 -46 -47 -60 -56 l-24 -16 21
-39 c12 -22 25 -49 29 -61 6 -21 3 -23 -32 -23 -28 0 -34 -3 -23 -10 9 -6 117
-10 255 -10 138 0 246 4 255 10 10 6 -48 10 -173 10 -184 0 -188 0 -214 24
-19 18 -24 30 -20 48 9 35 63 100 127 152 92 76 90 73 90 120 0 24 3 63 6 87
l6 44 58 -3 57 -4 -13 -36 c-7 -20 -13 -47 -14 -60 0 -32 -27 -93 -47 -107
-15 -11 -12 -18 28 -63 49 -58 95 -84 109 -62 6 9 0 24 -16 43 -34 41 -31 92
15 212 52 134 43 146 -127 177 l-64 12 7 55 c4 31 9 58 10 60 2 2 19 -6 38
-18 19 -11 41 -21 50 -21 27 0 136 102 148 138 16 48 -4 67 -31 32 -13 -17
-20 -20 -20 -10 0 13 -1 13 -10 0 -5 -8 -7 -23 -4 -32 4 -12 -6 -23 -35 -38
-22 -11 -46 -20 -54 -20 -18 0 -74 59 -86 93 -13 33 -7 47 19 47 10 0 21 8 25
19 3 10 14 26 25 36 29 26 25 59 -11 89 -37 31 -72 33 -99 6z"/>
<path d="M1331 1766 c-16 -17 -21 -34 -20 -63 3 -46 -5 -63 -31 -63 -10 0 -31
-11 -47 -24 -15 -13 -51 -38 -80 -55 -42 -26 -57 -43 -78 -89 -14 -31 -38 -80
-52 -108 -16 -31 -23 -59 -19 -69 6 -17 8 -17 29 2 12 11 28 18 35 16 8 -3 12
6 12 30 0 50 64 143 108 158 18 6 36 8 40 4 12 -12 7 -118 -8 -167 -13 -45
-13 -49 6 -75 25 -33 38 -136 22 -167 -6 -12 -29 -39 -52 -62 -22 -22 -59 -62
-80 -88 -21 -26 -49 -52 -62 -58 l-22 -10 29 -58 c16 -32 29 -60 29 -64 0 -3
-21 -6 -47 -7 -36 0 -43 -3 -28 -9 11 -5 130 -9 265 -9 135 0 254 4 265 9 12
5 -56 9 -172 9 -183 1 -194 2 -218 23 -14 12 -25 31 -25 43 0 39 66 115 183
211 21 18 26 32 32 100 3 43 8 84 9 89 2 6 28 9 59 7 55 -4 56 -4 43 -25 -8
-12 -21 -46 -31 -75 -11 -35 -28 -61 -50 -79 -33 -27 -33 -27 -16 -52 9 -14
22 -38 29 -53 14 -33 56 -62 77 -54 14 5 14 8 -1 31 -27 41 -12 105 51 218 30
54 55 107 55 118 0 25 -58 52 -149 70 l-63 12 6 56 c4 30 8 57 10 59 2 2 22
-9 45 -23 l40 -27 82 48 c85 50 120 87 102 105 -8 8 -19 6 -37 -6 -25 -17 -26
-17 -19 1 6 17 5 17 -10 5 -9 -7 -17 -22 -17 -32 0 -13 -14 -22 -52 -34 l-52
-15 -34 32 c-35 34 -66 94 -56 109 3 5 13 9 22 9 18 1 72 71 72 94 0 28 -13
47 -41 61 -40 21 -62 19 -88 -9z"/>
<path d="M2016 1769 c-22 -17 -26 -28 -26 -69 0 -45 -2 -49 -32 -59 -17 -6
-50 -28 -71 -49 -22 -20 -54 -50 -72 -67 -23 -22 -37 -49 -50 -100 -10 -38
-29 -83 -42 -98 -38 -46 -25 -84 15 -46 15 13 22 15 22 7 1 -20 30 23 30 43 0
31 58 147 79 158 11 6 22 11 25 11 14 0 4 -90 -15 -139 -17 -46 -18 -59 -8
-83 6 -16 19 -34 29 -41 9 -7 31 -32 49 -57 l32 -44 -63 -18 c-35 -9 -89 -17
-120 -18 -55 0 -58 -1 -63 -27 -3 -16 -10 -42 -15 -59 -14 -43 -12 -84 3 -84
6 1 24 18 39 40 22 31 38 42 80 54 82 22 188 31 188 14 -2 -62 -21 -161 -36
-193 -10 -21 -14 -40 -9 -42 6 -2 26 -13 45 -26 l35 -22 -180 -5 c-115 -3
-168 -8 -146 -12 46 -11 461 -9 486 2 16 7 12 9 -18 9 -21 1 -43 6 -50 11 -7
6 -24 19 -39 31 -42 31 -45 73 -13 198 l28 109 -38 68 c-21 38 -52 89 -68 113
l-30 44 22 68 22 68 43 -30 c43 -31 43 -31 77 -13 79 40 149 100 149 126 0 23
-18 23 -43 1 -20 -17 -20 -17 -13 1 5 16 4 17 -9 6 -8 -7 -15 -21 -15 -30 0
-13 -15 -23 -51 -35 l-51 -17 -40 40 c-32 32 -41 48 -42 78 -1 33 2 39 19 37
13 -2 29 10 48 37 39 58 35 90 -14 115 -37 20 -51 19 -83 -6z"/>
</g>
</svg>
